<?xml version="1.0" standalone="no"?><svg xmlns="http://www.w3.org/2000/svg" viewBox="0 0 1440 320"><path fill="#0099ff" fill-opacity="1" d="M0,320L26.7,277.3C53.3,235,107,149,160,138.7C213.3,128,267,192,320,186.7C373.3,181,427,107,480,69.3C533.3,32,587,32,640,58.7C693.3,85,747,139,800,186.7C853.3,235,907,277,960,256C1013.3,235,1067,149,1120,122.7C1173.3,96,1227,128,1280,144C1333.3,160,1387,160,1413,160L1440,160L1440,320L1413.3,320C1386.7,320,1333,320,1280,320C1226.7,320,1173,320,1120,320C1066.7,320,1013,320,960,320C906.7,320,853,320,800,320C746.7,320,693,320,640,320C586.7,320,533,320,480,320C426.7,320,373,320,320,320C266.7,320,213,320,160,320C106.7,320,53,320,27,320L0,320Z"></path></svg>